HIERARCHY
ROOT Hips
{
	OFFSET 0.00 0.00 0.00
	CHANNELS 6 Xposition Yposition Zposition Xrotation Yrotation Zrotation
	JOINT Spine
	{
		OFFSET 0.00000 4.35446 0.00000
		CHANNELS 3 Xrotation Yrotation Zrotation
		JOINT Head
		{
			OFFSET 0.00000 16.58177 0.00000
			CHANNELS 3 Xrotation Yrotation Zrotation
			End Site
			{
				OFFSET 0.00000 4.52755 0.00000
			}
		}
		JOINT LeftShoulder
		{
			OFFSET 0.00000 12.90370 0.00000
			CHANNELS 3 Xrotation Yrotation Zrotation
			JOINT LeftArm
			{
				OFFSET 6.94203 0.00000 0.00000
				CHANNELS 3 Xrotation Yrotation Zrotation
				JOINT LeftForeArm
				{
					OFFSET 11.01039 0.00000 0.00000
					CHANNELS 3 Zrotation Yrotation Xrotation
					JOINT LeftHand
					{
						OFFSET 8.05499 0.00000 0.00000
						CHANNELS 3 Xrotation Yrotation Zrotation
						JOINT LeftHandThumb1
						{
							OFFSET 0.00000 0.00000 0.00000
							CHANNELS 3 Xrotation Yrotation Zrotation
							End Site
							{
								OFFSET 0.00000 0.00000 3.93700
							}
						}
						End Site
						{
							OFFSET 3.93700 0.00000 0.00000
						}
					}
				}
			}
		}
		JOINT RightShoulder
		{
			OFFSET 0.00000 12.90370 0.00000
			CHANNELS 3 Xrotation Yrotation Zrotation
			JOINT RightArm
			{
				OFFSET -6.94203 0.00000 0.00000
				CHANNELS 3 Xrotation Yrotation Zrotation
				JOINT RightForeArm
				{
					OFFSET -11.01039 0.00000 0.00000
					CHANNELS 3 Zrotation Yrotation Xrotation
					JOINT RightHand
					{
						OFFSET -8.05499 0.00000 0.00000
						CHANNELS 3 Xrotation Yrotation Zrotation
						JOINT RightHandThumb1
						{
							OFFSET 0.00000 0.00000 0.00000
							CHANNELS 3 Xrotation Yrotation Zrotation
							End Site
							{
								OFFSET 0.00000 0.00000 3.93700
							}
						}
						End Site
						{
							OFFSET -3.93700 0.00000 0.00000
						}
					}
				}
			}
		}
	}
	JOINT LeftUpLeg
	{
		OFFSET 4.29108 0.00000 0.00000
		CHANNELS 3 Xrotation Yrotation Zrotation
		JOINT LeftLeg
		{
			OFFSET 0.00000 -17.03996 0.00000
			CHANNELS 3 Xrotation Yrotation Zrotation
			JOINT LeftFoot
			{
				OFFSET 0.00000 -16.93974 0.00000
				CHANNELS 3 Xrotation Yrotation Zrotation
				JOINT LeftToeBase
				{
					OFFSET 0.00000 -1.35493 5.05666
					CHANNELS 3 Xrotation Yrotation Zrotation
					End Site
					{
						OFFSET 0.00000 0.00000 2.95275
					}
				}
			}
		}
	}
	JOINT RightUpLeg
	{
		OFFSET -4.29108 0.00000 0.00000
		CHANNELS 3 Xrotation Yrotation Zrotation
		JOINT RightLeg
		{
			OFFSET 0.00000 -17.03996 0.00000
			CHANNELS 3 Xrotation Yrotation Zrotation
			JOINT RightFoot
			{
				OFFSET 0.00000 -16.93974 0.00000
				CHANNELS 3 Xrotation Yrotation Zrotation
				JOINT RightToeBase
				{
					OFFSET 0.00000 -1.35493 5.05666
					CHANNELS 3 Xrotation Yrotation Zrotation
					End Site
					{
						OFFSET 0.00000 0.00000 2.95275
					}
				}
			}
		}
	}
}
MOTION
Frames: 7
Frame Time: 0.008333
 -2.0440 35.6115 -9.4079 -173.2758 -14.3981 179.4598 5.6003 -2.8458 -2.2669 6.9300 -9.3269 16.4693 14.9066 4.5396 -1.7924 -19.0416 12.0297 -73.0943 -0.0000 -9.4989 -0.2278 0.1725 -2.7430 3.6004 33.1476 26.2537 -0.0000 9.2392 -20.5011 6.7772 -1.3169 -6.5219 72.5603 0.0000 30.0413 27.9203 -0.0358 0.4461 4.5866 32.8623 -24.3270 0.0000 9.8889 7.3731 -9.8689 2.4463 -0.0000 0.0000 -15.7254 18.6506 3.2393 18.5653 0.0000 -0.0000 -75.4056 -12.8306 3.9834 109.1374 -0.0000 -0.0000 26.0123 -43.4565 -8.5346 17.0282 -0.0000 0.0000
 -2.0867 35.6082 -9.3942 -173.3536 -13.9052 179.3386 5.5133 -2.4711 -2.0986 6.8833 -9.2620 16.3617 14.8839 4.5402 -1.8815 -18.9017 12.2060 -73.0397 -0.0000 -9.4929 -0.2214 0.1569 -2.6504 3.3898 33.1476 26.2537 -0.0000 9.1705 -20.4645 6.7330 -1.4587 -6.4148 72.4513 0.0000 30.2677 28.2859 -0.0421 0.4952 4.8540 32.8623 -24.3270 0.0000 9.9220 7.7431 -9.9219 2.3187 0.0000 -0.0000 -15.7456 18.7128 3.2193 18.6635 -0.0000 0.0000 -75.5483 -13.3050 3.1536 109.0985 0.0000 -0.0000 26.1295 -43.5515 -8.3855 17.1443 -0.0000 0.0000
 -2.1273 35.6047 -9.3795 -173.4413 -13.4698 179.2442 5.4288 -2.1410 -2.0008 6.8173 -9.2628 16.3328 14.8502 4.5690 -1.9039 -18.7705 12.3997 -73.0462 0.0000 -9.4870 -0.2783 0.1639 -2.6917 3.4851 33.1476 26.2537 -0.0000 9.0885 -20.4620 6.7158 -1.5889 -6.2111 72.3416 -0.0000 30.3935 28.3764 -0.0521 0.6181 4.8152 32.8623 -24.3270 -0.0000 9.9206 8.0988 -9.9829 2.2399 -0.0000 0.0000 -15.7608 18.7290 3.1592 18.7570 -0.0000 0.0000 -75.7306 -13.7409 2.2769 109.0572 -0.0000 -0.0000 26.3118 -43.6004 -8.3162 17.1724 -0.0000 0.0000
 -2.1691 35.6027 -9.3673 -173.5290 -13.0590 179.1436 5.3279 -1.8451 -1.8843 6.7781 -9.2540 16.2829 14.8330 4.6001 -1.9325 -18.6039 12.5411 -73.0426 0.0000 -9.5131 -0.2558 0.1582 -2.6085 3.4712 33.1476 26.2537 -0.0000 9.0300 -20.4484 6.6997 -1.7436 -6.0431 72.2281 -0.0000 30.5346 28.5429 -0.0591 0.6920 4.8791 32.8623 -24.3270 0.0000 9.9350 8.4463 -10.0334 2.1351 -0.0000 -0.0000 -15.7772 18.7463 3.0232 18.9112 -0.0000 0.0000 -75.9253 -14.1843 1.3515 109.0408 -0.0000 -0.0000 26.4522 -43.5981 -8.1895 17.0979 -0.0000 -0.0000
 -2.2129 35.6009 -9.3539 -173.6148 -12.6366 179.0499 5.2179 -1.5658 -1.7582 6.7756 -9.2157 16.1873 14.8451 4.6310 -1.9766 -18.4889 12.7044 -73.0504 -0.0000 -9.4692 -0.4212 0.1700 -2.6932 3.6135 33.1476 26.2537 -0.0000 8.9425 -20.3535 6.6548 -1.8443 -5.9578 72.1290 0.0000 30.7760 28.8187 -0.0579 0.6567 5.0395 32.8623 -24.3270 0.0000 9.9607 8.8022 -10.0957 2.0116 0.0000 0.0000 -15.7705 18.7575 2.9178 19.1060 0.0000 -0.0000 -76.1336 -14.5807 0.4355 109.0227 0.0000 -0.0000 26.5438 -43.5833 -8.0706 17.1251 -0.0000 0.0000
 -2.2565 35.5988 -9.3441 -173.7185 -12.2396 178.9688 5.0971 -1.2912 -1.6681 6.7419 -9.2084 16.1498 14.8411 4.6611 -1.9820 -18.3191 12.9396 -73.0705 -0.0000 -9.5271 -0.2674 0.1429 -2.4812 3.2971 33.1476 26.2537 0.0000 8.8733 -20.3517 6.6505 -1.9273 -5.6631 71.9924 0.0000 30.9838 28.9407 -0.0491 0.5552 5.0573 32.8623 -24.3270 0.0000 9.9727 9.1346 -10.1661 1.8956 -0.0000 0.0000 -15.7646 18.7553 2.7723 19.2634 0.0000 -0.0000 -76.3790 -14.9591 -0.5135 109.0157 -0.0000 0.0000 26.6349 -43.5988 -8.0278 17.1748 0.0000 -0.0000
 -2.2982 35.5974 -9.3346 -173.8384 -11.9081 178.8808 4.9476 -1.0870 -1.5711 6.7253 -9.1862 16.1026 14.9119 4.6929 -1.9828 -18.2010 13.0664 -73.1115 -0.0000 -9.5311 -0.4474 0.1659 -2.6694 3.5573 33.1476 26.2537 -0.0000 8.7833 -20.3019 6.6098 -1.9765 -5.4817 71.8920 -0.0000 31.1902 29.0396 -0.0543 0.6106 5.0847 32.8623 -24.3270 0.0000 9.9583 9.4335 -10.2198 1.7935 0.0000 0.0000 -15.7519 18.7477 2.6257 19.3729 -0.0000 0.0000 -76.6589 -15.3098 -1.4875 109.0386 -0.0000 0.0000 26.6606 -43.4697 -8.0377 17.2163 0.0000 0.0000
